<svg width="270" height="66" viewBox="0 0 270 66" fill="none" xmlns="http://www.w3.org/2000/svg">
<path fill-rule="evenodd" clip-rule="evenodd" d="M240.978 12.3958C240.978 12.3958 239.429 21.4673 233.605 29.9814C227.782 38.4954 219.89 43.228 219.89 43.228C219.89 43.228 221.439 34.1569 227.262 25.6425C233.086 17.1289 240.978 12.3958 240.978 12.3958Z" fill="#AFC236"/>
<path fill-rule="evenodd" clip-rule="evenodd" d="M199.942 0C199.942 0 201.067 11.7058 207.69 23.1019C214.314 34.4979 223.928 41.2694 223.928 41.2694C223.928 41.2694 222.804 29.5636 216.18 18.1675C209.557 6.77145 199.942 0 199.942 0Z" fill="#AFC236"/>
<path fill-rule="evenodd" clip-rule="evenodd" d="M224.92 1.38932C224.92 1.38932 228.924 10.7693 228.612 22.1966C228.301 33.6235 223.792 42.771 223.792 42.771C223.792 42.771 219.788 33.3914 220.099 21.9641C220.411 10.5372 224.92 1.38932 224.92 1.38932Z" fill="#89A136"/>
<path fill-rule="evenodd" clip-rule="evenodd" d="M197 19.7699C197 19.7699 200.871 26.4013 207.917 31.3441C214.963 36.2865 222.516 37.669 222.516 37.669C222.516 37.669 218.645 31.0373 211.599 26.0949C204.553 21.1521 197 19.7699 197 19.7699Z" fill="#89A136"/>
<path fill-rule="evenodd" clip-rule="evenodd" d="M223.011 43.4175C223.011 43.4175 230.259 40.8841 236.456 34.9111C242.653 28.9385 245.453 21.7885 245.453 21.7885C245.453 21.7885 238.204 24.322 232.007 30.2945C225.81 36.2671 223.011 43.4175 223.011 43.4175Z" fill="#89A136"/>
<path fill-rule="evenodd" clip-rule="evenodd" d="M234.122 64.359H210.232L205.779 42.4603H238.575L234.122 64.359Z" fill="#F2CE57"/>
<path fill-rule="evenodd" clip-rule="evenodd" d="M240.472 41.5011C240.472 42.9035 239.335 44.0404 237.933 44.0404H206.421C205.019 44.0404 203.882 42.9035 203.882 41.5011V41.4357C203.882 40.0332 205.019 38.8967 206.421 38.8967H237.933C239.335 38.8967 240.472 40.0332 240.472 41.4357V41.5011Z" fill="#E18C44"/>
<path fill-rule="evenodd" clip-rule="evenodd" d="M228.857 13.9822C228.857 15.8016 227.382 17.277 225.563 17.277C223.743 17.277 222.268 15.8016 222.268 13.9822C222.268 12.1625 223.743 10.6875 225.563 10.6875C227.382 10.6875 228.857 12.1625 228.857 13.9822Z" fill="#453497"/>
<path fill-rule="evenodd" clip-rule="evenodd" d="M228.857 25.8801C228.857 27.6999 227.382 29.1749 225.563 29.1749C223.743 29.1749 222.268 27.6999 222.268 25.8801C222.268 24.0603 223.743 22.5853 225.563 22.5853C227.382 22.5853 228.857 24.0603 228.857 25.8801Z" fill="#453497"/>
<path fill-rule="evenodd" clip-rule="evenodd" d="M219.614 16.6364C221.433 16.6364 222.908 18.1114 222.908 19.9312C222.908 21.751 221.433 23.2259 219.614 23.2259C217.794 23.2259 216.319 21.751 216.319 19.9312C216.319 18.1114 217.794 16.6364 219.614 16.6364Z" fill="#453497"/>
<path fill-rule="evenodd" clip-rule="evenodd" d="M231.511 16.6364C233.331 16.6364 234.806 18.1114 234.806 19.9312C234.806 21.751 233.331 23.2259 231.511 23.2259C229.692 23.2259 228.217 21.751 228.217 19.9312C228.217 18.1114 229.692 16.6364 231.511 16.6364Z" fill="#453497"/>
<path fill-rule="evenodd" clip-rule="evenodd" d="M223.686 13.3948C224.972 14.6815 224.972 16.7676 223.686 18.0544C222.399 19.3412 220.313 19.3412 219.026 18.0544C217.739 16.7676 217.739 14.6815 219.026 13.3948C220.313 12.108 222.399 12.108 223.686 13.3948Z" fill="#453497"/>
<path fill-rule="evenodd" clip-rule="evenodd" d="M232.099 21.8079C233.386 23.0947 233.386 25.1808 232.099 26.4675C230.812 27.7543 228.726 27.7543 227.439 26.4675C226.152 25.1808 226.152 23.0947 227.439 21.8079C228.726 20.5212 230.812 20.5212 232.099 21.8079Z" fill="#453497"/>
<path fill-rule="evenodd" clip-rule="evenodd" d="M219.026 21.8079C220.313 20.5212 222.399 20.5212 223.686 21.8079C224.972 23.0947 224.972 25.1808 223.686 26.4675C222.399 27.7543 220.313 27.7543 219.026 26.4675C217.739 25.1808 217.739 23.0947 219.026 21.8079Z" fill="#453497"/>
<path fill-rule="evenodd" clip-rule="evenodd" d="M227.439 13.3948C228.726 12.108 230.812 12.108 232.099 13.3948C233.386 14.6815 233.386 16.7676 232.099 18.0544C230.812 19.3412 228.726 19.3412 227.439 18.0544C226.152 16.7676 226.152 14.6815 227.439 13.3948Z" fill="#453497"/>
<path fill-rule="evenodd" clip-rule="evenodd" d="M230.263 19.9312C230.263 22.5275 228.159 24.6321 225.562 24.6321C222.966 24.6321 220.861 22.5275 220.861 19.9312C220.861 17.3348 222.966 15.2298 225.562 15.2298C228.159 15.2298 230.263 17.3348 230.263 19.9312Z" fill="#F2CE57"/>
<path fill-rule="evenodd" clip-rule="evenodd" d="M225.562 23.3137C223.697 23.3137 222.18 21.7961 222.18 19.9307C222.18 18.0658 223.697 16.5486 225.562 16.5486C227.427 16.5486 228.945 18.0658 228.945 19.9307C228.945 21.7961 227.427 23.3137 225.562 23.3137Z" fill="#E0A428"/>
<path fill-rule="evenodd" clip-rule="evenodd" d="M218.582 29.5218C218.582 31.063 217.332 32.3122 215.791 32.3122C214.25 32.3122 213 31.063 213 29.5218C213 27.9805 214.25 26.7313 215.791 26.7313C217.332 26.7313 218.582 27.9805 218.582 29.5218Z" fill="#453497"/>
<path fill-rule="evenodd" clip-rule="evenodd" d="M218.582 39.599C218.582 41.1402 217.332 42.3894 215.791 42.3894C214.25 42.3894 213 41.1402 213 39.599C213 38.0577 214.25 36.8085 215.791 36.8085C217.332 36.8085 218.582 38.0577 218.582 39.599Z" fill="#453497"/>
<path fill-rule="evenodd" clip-rule="evenodd" d="M210.753 31.7699C212.294 31.7699 213.543 33.0191 213.543 34.5604C213.543 36.1016 212.294 37.3508 210.753 37.3508C209.211 37.3508 207.962 36.1016 207.962 34.5604C207.962 33.0191 209.211 31.7699 210.753 31.7699Z" fill="#453497"/>
<path fill-rule="evenodd" clip-rule="evenodd" d="M220.83 31.7699C222.371 31.7699 223.62 33.0191 223.62 34.5604C223.62 36.1016 222.371 37.3508 220.83 37.3508C219.289 37.3508 218.039 36.1016 218.039 34.5604C218.039 33.0191 219.289 31.7699 220.83 31.7699Z" fill="#453497"/>
<path fill-rule="evenodd" clip-rule="evenodd" d="M214.201 29.0242C215.291 30.1139 215.291 31.8809 214.201 32.971C213.112 34.0607 211.345 34.0607 210.255 32.971C209.165 31.8809 209.165 30.1139 210.255 29.0242C211.345 27.9345 213.112 27.9345 214.201 29.0242Z" fill="#453497"/>
<path fill-rule="evenodd" clip-rule="evenodd" d="M221.327 36.1497C222.417 37.2398 222.417 39.0069 221.327 40.0966C220.237 41.1862 218.47 41.1862 217.381 40.0966C216.291 39.0069 216.291 37.2398 217.381 36.1497C218.47 35.0601 220.237 35.0601 221.327 36.1497Z" fill="#453497"/>
<path fill-rule="evenodd" clip-rule="evenodd" d="M210.255 36.1497C211.345 35.0601 213.112 35.0601 214.201 36.1497C215.291 37.2398 215.291 39.0069 214.201 40.0966C213.112 41.1862 211.345 41.1862 210.255 40.0966C209.165 39.0069 209.165 37.2398 210.255 36.1497Z" fill="#453497"/>
<path fill-rule="evenodd" clip-rule="evenodd" d="M217.381 29.0242C218.47 27.9345 220.237 27.9345 221.327 29.0242C222.417 30.1139 222.417 31.8809 221.327 32.971C220.237 34.0607 218.47 34.0607 217.381 32.971C216.291 31.8809 216.291 30.1139 217.381 29.0242Z" fill="#453497"/>
<path fill-rule="evenodd" clip-rule="evenodd" d="M219.773 34.5604C219.773 36.7596 217.99 38.5422 215.791 38.5422C213.592 38.5422 211.809 36.7596 211.809 34.5604C211.809 32.3612 213.592 30.5785 215.791 30.5785C217.99 30.5785 219.773 32.3612 219.773 34.5604Z" fill="#F2CE57"/>
<path fill-rule="evenodd" clip-rule="evenodd" d="M215.791 37.4255C214.211 37.4255 212.926 36.14 212.926 34.5604C212.926 32.9803 214.211 31.6952 215.791 31.6952C217.371 31.6952 218.656 32.9803 218.656 34.5604C218.656 36.14 217.371 37.4255 215.791 37.4255Z" fill="#E0A428"/>
<path fill-rule="evenodd" clip-rule="evenodd" d="M232.14 32.9896C232.14 34.1037 231.237 35.0069 230.123 35.0069C229.008 35.0069 228.105 34.1037 228.105 32.9896C228.105 31.8754 229.008 30.9719 230.123 30.9719C231.237 30.9719 232.14 31.8754 232.14 32.9896Z" fill="#453497"/>
<path fill-rule="evenodd" clip-rule="evenodd" d="M232.14 40.2751C232.14 41.3892 231.237 42.2924 230.123 42.2924C229.008 42.2924 228.105 41.3892 228.105 40.2751C228.105 39.1605 229.008 38.2574 230.123 38.2574C231.237 38.2574 232.14 39.1605 232.14 40.2751Z" fill="#453497"/>
<path fill-rule="evenodd" clip-rule="evenodd" d="M226.48 34.6148C227.594 34.6148 228.497 35.518 228.497 36.6321C228.497 37.7463 227.594 38.6498 226.48 38.6498C225.366 38.6498 224.462 37.7463 224.462 36.6321C224.462 35.518 225.366 34.6148 226.48 34.6148Z" fill="#453497"/>
<path fill-rule="evenodd" clip-rule="evenodd" d="M233.766 34.6148C234.88 34.6148 235.783 35.518 235.783 36.6321C235.783 37.7463 234.88 38.6498 233.766 38.6498C232.651 38.6498 231.748 37.7463 231.748 36.6321C231.748 35.518 232.651 34.6148 233.766 34.6148Z" fill="#453497"/>
<path fill-rule="evenodd" clip-rule="evenodd" d="M228.973 32.63C229.761 33.4175 229.761 34.695 228.973 35.4829C228.185 36.2709 226.908 36.2709 226.12 35.4829C225.333 34.695 225.333 33.4175 226.12 32.63C226.908 31.8421 228.185 31.8421 228.973 32.63Z" fill="#453497"/>
<path fill-rule="evenodd" clip-rule="evenodd" d="M234.125 37.7813C234.913 38.5692 234.913 39.8467 234.125 40.6346C233.337 41.4226 232.06 41.4226 231.272 40.6346C230.484 39.8467 230.484 38.5692 231.272 37.7813C232.06 36.9934 233.337 36.9934 234.125 37.7813Z" fill="#453497"/>
<path fill-rule="evenodd" clip-rule="evenodd" d="M226.12 37.7813C226.908 36.9934 228.185 36.9934 228.973 37.7813C229.761 38.5692 229.761 39.8467 228.973 40.6346C228.185 41.4226 226.908 41.4226 226.12 40.6346C225.333 39.8467 225.333 38.5692 226.12 37.7813Z" fill="#453497"/>
<path fill-rule="evenodd" clip-rule="evenodd" d="M231.272 32.63C232.06 31.8421 233.337 31.8421 234.125 32.63C234.913 33.4175 234.913 34.695 234.125 35.4829C233.337 36.2709 232.06 36.2709 231.272 35.4829C230.484 34.695 230.484 33.4175 231.272 32.63Z" fill="#453497"/>
<path fill-rule="evenodd" clip-rule="evenodd" d="M233.001 36.6321C233.001 38.2219 231.712 39.5108 230.123 39.5108C228.533 39.5108 227.244 38.2219 227.244 36.6321C227.244 35.0423 228.533 33.7535 230.123 33.7535C231.712 33.7535 233.001 35.0423 233.001 36.6321Z" fill="#F2CE57"/>
<path fill-rule="evenodd" clip-rule="evenodd" d="M230.123 38.7034C228.981 38.7034 228.051 37.7741 228.051 36.6321C228.051 35.4901 228.981 34.5608 230.123 34.5608C231.265 34.5608 232.194 35.4901 232.194 36.6321C232.194 37.7741 231.265 38.7034 230.123 38.7034Z" fill="#E0A428"/>
<path fill-rule="evenodd" clip-rule="evenodd" d="M229.534 53.0064C229.928 53.6922 229.435 54.7144 228.434 55.2896C227.432 55.8648 226.301 55.7749 225.907 55.0891C225.513 54.4033 226.006 53.3812 227.007 52.8064C228.009 52.2312 229.14 52.3206 229.534 53.0064Z" fill="black"/>
<path fill-rule="evenodd" clip-rule="evenodd" d="M227.528 52.9621L227.404 53.0233C227.373 52.96 226.65 51.4719 227.026 50.8815C227.13 50.7169 227.306 50.6359 227.548 50.6401L227.545 50.779C227.352 50.7752 227.221 50.833 227.142 50.9562C226.808 51.4808 227.521 52.9473 227.528 52.9621Z" fill="black"/>
<path fill-rule="evenodd" clip-rule="evenodd" d="M228.087 50.7443C228.199 50.9389 228.132 51.1875 227.937 51.2993C227.742 51.4116 227.494 51.344 227.382 51.1495C227.27 50.9545 227.337 50.7059 227.532 50.5941C227.727 50.4823 227.975 50.5494 228.087 50.7443Z" fill="black"/>
<path fill-rule="evenodd" clip-rule="evenodd" d="M226.964 53.2862C226.955 53.2727 226.048 51.918 225.426 51.9421C225.28 51.9475 225.164 52.032 225.07 52.2003L224.949 52.1328C225.067 51.9218 225.225 51.8112 225.42 51.8036C226.12 51.7766 227.041 53.1512 227.079 53.2098L226.964 53.2862Z" fill="black"/>
<path fill-rule="evenodd" clip-rule="evenodd" d="M224.766 52.6515C224.878 52.846 225.127 52.9131 225.322 52.8013C225.517 52.6895 225.584 52.4409 225.472 52.2463C225.36 52.0514 225.112 51.9843 224.917 52.0961C224.722 52.2079 224.655 52.4565 224.766 52.6515Z" fill="black"/>
<path fill-rule="evenodd" clip-rule="evenodd" d="M225.47 56.3683C225.397 57.1959 225.573 58.0682 226.029 58.8612C227.053 60.6439 229.133 61.412 230.886 60.7443C230.487 59.3951 229.705 57.7682 228.91 56.3012C227.826 56.8958 226.557 56.8806 225.47 56.3683Z" fill="#E65400"/>
<path fill-rule="evenodd" clip-rule="evenodd" d="M232.698 55.0313C232.242 54.2383 231.578 53.6462 230.826 53.2917C230.721 54.489 230.094 55.593 229.035 56.2295C229.901 57.6555 230.913 59.1503 231.876 60.1754C233.337 58.998 233.722 56.814 232.698 55.0313Z" fill="#E65400"/>
<path fill-rule="evenodd" clip-rule="evenodd" d="M228.91 56.3012C228.309 55.1925 227.701 54.1759 227.246 53.4394C226.196 54.0775 225.574 55.1765 225.47 56.3683C226.557 56.8806 227.826 56.8958 228.91 56.3012Z" fill="black"/>
<path fill-rule="evenodd" clip-rule="evenodd" d="M229.035 56.2295C230.094 55.593 230.721 54.489 230.826 53.2917C229.744 52.7819 228.482 52.7642 227.402 53.3499C227.808 54.1142 228.38 55.1516 229.035 56.2295Z" fill="black"/>
<path fill-rule="evenodd" clip-rule="evenodd" d="M228.973 56.2666C228.952 56.2784 228.931 56.2898 228.91 56.3012C229.705 57.7682 230.487 59.3951 230.886 60.7443C231.062 60.6772 231.235 60.5958 231.404 60.4991C231.572 60.4025 231.73 60.294 231.877 60.1754C230.913 59.1503 229.901 57.6555 229.035 56.2295C229.014 56.2417 228.994 56.2544 228.973 56.2666Z" fill="black"/>
<path fill-rule="evenodd" clip-rule="evenodd" d="M228.91 56.3012C228.931 56.2898 228.952 56.2784 228.973 56.2666C228.994 56.2544 229.014 56.2417 229.035 56.2295C228.38 55.1516 227.808 54.1142 227.402 53.3499C227.376 53.3643 227.349 53.3786 227.323 53.3934C227.297 53.4086 227.271 53.4242 227.246 53.4394C227.701 54.1759 228.309 55.1925 228.91 56.3012Z" fill="black"/>
<path fill-rule="evenodd" clip-rule="evenodd" d="M227.999 57.385C228.227 57.7817 228.09 58.2877 227.694 58.5156C227.297 58.7435 226.791 58.6063 226.563 58.2096C226.335 57.8129 226.472 57.3069 226.869 57.079C227.265 56.8511 227.772 56.9883 227.999 57.385Z" fill="black"/>
<path fill-rule="evenodd" clip-rule="evenodd" d="M229.741 59.5445C229.922 59.8585 229.813 60.259 229.499 60.4392C229.186 60.6194 228.785 60.5109 228.605 60.1974C228.425 59.8834 228.533 59.4829 228.847 59.3027C229.161 59.1225 229.561 59.2309 229.741 59.5445Z" fill="black"/>
<path fill-rule="evenodd" clip-rule="evenodd" d="M229.52 57.9577C229.665 58.2105 229.578 58.5329 229.325 58.6776C229.073 58.8228 228.751 58.7355 228.605 58.4831C228.461 58.2307 228.548 57.9083 228.8 57.7631C229.053 57.6179 229.375 57.7053 229.52 57.9577Z" fill="black"/>
<path fill-rule="evenodd" clip-rule="evenodd" d="M230.546 55.9226C230.774 56.3189 231.28 56.4561 231.676 56.2282C232.073 56.0003 232.21 55.4943 231.982 55.0976C231.754 54.7009 231.248 54.5637 230.852 54.7916C230.455 55.0195 230.318 55.5259 230.546 55.9226Z" fill="black"/>
<path fill-rule="evenodd" clip-rule="evenodd" d="M231.476 58.7481C231.657 59.0617 232.057 59.1702 232.371 58.9899C232.685 58.8097 232.793 58.4092 232.612 58.0952C232.432 57.7817 232.032 57.6732 231.718 57.8534C231.404 58.0336 231.296 58.4341 231.476 58.7481Z" fill="black"/>
<path fill-rule="evenodd" clip-rule="evenodd" d="M230.275 57.5247C230.42 57.777 230.742 57.8644 230.995 57.7192C231.247 57.574 231.334 57.252 231.189 56.9992C231.044 56.7469 230.722 56.6595 230.469 56.8047C230.217 56.9494 230.129 57.2719 230.275 57.5247Z" fill="black"/>
<path fill-rule="evenodd" clip-rule="evenodd" d="M0.657367 61.9023C1.06098 61.8236 1.48074 61.8101 1.89425 61.8054C3.74202 61.7825 5.59031 61.7721 7.43807 61.7575C10.1196 61.7356 12.796 61.8054 15.4661 62.0851C16.3832 62.1809 17.3118 62.1689 18.2351 62.2043C19.8506 62.2663 21.4651 62.3272 23.0806 62.3887C23.1264 62.3903 23.1727 62.3991 23.2186 62.3986C26.2683 62.3762 29.3176 62.3632 32.3673 62.3257C33.5214 62.3111 34.6776 62.2783 35.828 62.1872C39.2454 61.9169 42.6613 62.0085 46.0782 62.1569C47.4151 62.2153 48.7499 62.3361 50.0873 62.3866C51.2408 62.4298 52.397 62.4116 53.5526 62.4231C56.2784 62.4507 59.0084 62.4022 61.7311 62.5246C66.6693 62.747 71.6069 62.7262 76.5466 62.6829C79.587 62.6564 82.6284 62.6793 85.6683 62.621C90.0976 62.5356 94.5264 62.3996 98.9552 62.2788C100.802 62.2278 102.651 62.1877 104.496 62.0903C105.788 62.0226 107.075 62.0262 108.367 62.0366C109.422 62.045 110.483 61.9606 111.547 61.9658C114.364 61.9783 137.183 61.9903 139.998 61.8997C142.809 61.8085 145.615 61.5695 148.425 61.4388C150.728 61.3315 153.028 61.1133 155.338 61.2299C155.383 61.2325 155.429 61.2211 155.475 61.22C158.336 61.1466 161.198 61.0654 164.059 61.005C164.981 60.9857 165.904 61.0284 166.825 61.0341C169.087 61.0482 171.348 61.0372 173.609 61.0737C176.195 61.1154 178.781 61.1846 181.366 61.2654C183.536 61.3336 185.706 61.4232 187.875 61.5258C190.824 61.6653 193.77 61.8903 196.7 62.2387C199.181 62.5335 201.664 62.6751 204.156 62.7835C206.047 62.8657 207.933 62.896 209.827 62.8871C210.89 62.8819 211.94 62.7845 212.995 62.7621C215.672 62.7069 218.35 62.7501 221.027 62.7423C222.689 62.7376 224.349 62.6939 226.01 62.6975C228.877 62.7053 231.727 62.458 234.58 62.2241C235.312 62.1637 236.051 62.1913 236.786 62.2007C237.94 62.2168 239.094 62.2569 240.248 62.2767C240.617 62.2835 240.986 62.2585 241.354 62.2491C243.201 62.2017 245.048 62.1554 246.898 62.1085C247.591 62.0908 248.278 62.0554 248.971 62.058C251.283 62.0669 253.59 62.0866 255.897 62.107C257.788 62.1241 259.684 62.0476 261.564 62.195C263.912 62.3783 266.266 62.4236 268.615 62.472C269.016 62.4804 269.318 62.6527 269.495 63.0319C269.631 63.3246 269.782 63.6079 269.959 63.95C269.802 64.3047 269.636 64.6791 269.474 65.0421C269.323 65.1067 269.204 65.1994 269.073 65.2077C267.324 65.3161 265.574 65.4983 263.819 65.2989C263.454 65.2567 263.084 65.2567 262.715 65.2572C259.35 65.2609 255.981 65.3041 252.616 65.2645C249.986 65.2338 247.356 65.0125 244.726 65.0385C242.043 65.0645 239.381 64.7734 236.708 64.7114C233.431 64.6359 230.151 64.7177 226.872 64.7015C224.934 64.6916 222.981 64.7573 221.064 64.5406C219.354 64.3484 217.656 64.3615 215.95 64.3125C214.607 64.2745 213.274 64.3078 211.958 64.638C211.469 64.7604 210.972 64.7937 210.453 64.6797C210.058 64.5932 209.617 64.6073 209.217 64.6833C207.745 64.9604 206.273 64.8796 204.798 64.7786C204.66 64.7687 204.522 64.7432 204.383 64.7416C201.154 64.7067 197.924 64.6797 194.694 64.6364C193.91 64.6265 193.126 64.551 192.342 64.5292C189.944 64.4615 187.544 64.4104 185.146 64.3443C181.87 64.2531 178.595 64.1146 175.319 64.0698C171.717 64.0209 168.114 64.062 164.511 64.0516C161.973 64.0438 159.434 63.9964 156.896 64.0021C153.433 64.011 149.97 64.063 146.507 64.0776C145.125 64.0839 143.75 64.161 142.362 63.9157C141.374 63.7412 140.335 63.8579 139.319 63.8401C137.703 63.8115 136.097 63.7105 134.486 63.5167C132.751 63.3079 110.99 63.2819 109.238 63.2569C106.975 63.2246 104.71 63.2517 102.446 63.2949C101.017 63.3225 99.5885 63.436 98.1584 63.4928C97.2824 63.5266 96.4033 63.4954 95.5284 63.5459C92.9047 63.6985 90.2846 63.8495 87.652 63.7183C86.4562 63.6589 85.2407 63.8589 84.0569 63.7313C82.8034 63.5959 81.5785 63.6964 80.3359 63.7396C76.6909 63.8667 73.0479 64.0985 69.3977 64.0073C69.306 64.0047 69.2092 64.0318 69.1211 64.0141C67.8749 63.7584 66.6495 63.8037 65.4444 64.2339C65.3162 64.2797 65.1704 64.2859 65.0324 64.2865C62.8618 64.2995 60.6901 64.2958 58.5184 64.3214C57.0898 64.3375 55.6571 64.3385 54.2338 64.4469C51.8824 64.6265 49.5389 64.6302 47.188 64.4354C46.5032 64.3786 45.8058 64.4984 45.1132 64.5167C42.7113 64.5781 40.3084 64.612 37.907 64.6927C36.5248 64.7396 35.1457 64.8583 33.7651 64.9406C32.1528 65.0374 30.5435 65.1453 28.9239 65.0062C28.1463 64.9395 27.3563 65.0401 26.573 65.0177C25.3262 64.9807 24.0815 64.902 22.8353 64.8442C20.8958 64.7531 18.9569 64.6646 17.0175 64.575C14.6651 64.4661 12.3127 64.3349 9.9587 64.2568C8.62183 64.212 7.28184 64.2521 5.94288 64.2557C4.97213 64.2578 4.00189 64.2823 3.03218 64.2609C1.81561 64.2349 0.821417 63.7172 0.00116984 62.771C-0.0144539 62.2111 0.273023 61.9778 0.657367 61.9023Z" fill="#04093F"/>
</svg>
